# Blender v2.90.1 OBJ File: ''
# www.blender.org
mtllib CageDoor.mtl
o Cage.Bars_Cube.005
v 20.348251 2.478247 -14.006841
v 21.527008 53.134716 -15.324841
v 21.527008 2.478244 -15.324850
v 22.705765 2.478247 -14.006841
v 21.527008 53.134716 -12.688807
v 21.527008 2.478244 -12.688816
v 20.348248 2.478245 -6.625925
v 21.527008 53.134708 -7.943924
v 21.527008 2.478242 -7.943933
v 22.705765 2.478245 -6.625925
v 21.527008 53.134708 -5.307890
v 21.527008 2.478242 -5.307899
v 20.348248 2.478243 0.754990
v 21.527008 53.134708 -0.563010
v 21.527008 2.478240 -0.563021
v 22.705765 2.478243 0.754990
v 21.527008 53.134708 2.073025
v 21.527008 2.478240 2.073014
v 20.348248 53.134708 8.135923
v 21.527004 2.478238 6.817896
v 20.348248 2.478240 8.135906
v 21.527008 53.134708 6.817904
v 22.705765 2.478240 8.135906
v 21.527008 53.134708 9.453941
v 21.527004 2.478238 9.453930
v 20.348248 2.478237 15.516823
v 21.527008 53.134701 14.198824
v 21.527004 2.478236 14.198814
v 22.705765 2.478237 15.516823
v 21.527008 53.134701 16.834858
v 21.527004 2.478234 16.834846
v 20.348251 53.134716 -14.006824
v 22.705765 53.134716 -14.006824
v 20.348248 53.134708 -6.625907
v 22.705765 53.134708 -6.625907
v 20.348248 53.134708 0.755008
v 22.705765 53.134708 0.755008
v 22.705765 53.134708 8.135923
v 20.348248 53.134701 15.516840
v 22.705765 53.134701 15.516840
vt 0.375000 0.000000
vt 0.625000 0.250000
vt 0.375000 0.250000
vt 0.375000 0.500000
vt 0.625000 0.750000
vt 0.375000 0.750000
vt 0.375000 1.000000
vt 0.375000 0.000000
vt 0.625000 0.250000
vt 0.375000 0.250000
vt 0.375000 0.500000
vt 0.625000 0.750000
vt 0.375000 0.750000
vt 0.375000 1.000000
vt 0.375000 0.000000
vt 0.625000 0.250000
vt 0.375000 0.250000
vt 0.375000 0.500000
vt 0.625000 0.750000
vt 0.375000 0.750000
vt 0.375000 1.000000
vt 0.625000 0.000000
vt 0.375000 0.250000
vt 0.375000 0.000000
vt 0.625000 0.250000
vt 0.375000 0.500000
vt 0.625000 0.750000
vt 0.375000 0.750000
vt 0.375000 1.000000
vt 0.375000 0.000000
vt 0.625000 0.250000
vt 0.375000 0.250000
vt 0.375000 0.500000
vt 0.625000 0.750000
vt 0.375000 0.750000
vt 0.375000 1.000000
vt 0.625000 0.000000
vt 0.625000 0.500000
vt 0.625000 1.000000
vt 0.625000 0.000000
vt 0.625000 0.500000
vt 0.625000 1.000000
vt 0.625000 0.000000
vt 0.625000 0.500000
vt 0.625000 1.000000
vt 0.625000 0.500000
vt 0.625000 1.000000
vt 0.625000 0.000000
vt 0.625000 0.500000
vt 0.625000 1.000000
vn -1.0000 -0.0000 -0.0000
vn 0.0000 0.0000 -1.0000
vn 1.0000 0.0000 -0.0000
vn 0.0000 -0.0000 1.0000
usemtl Metallic.002
s 1
f 1/1/1 2/2/2 3/3/2
f 2/2/2 4/4/3 3/3/2
f 4/4/3 5/5/4 6/6/4
f 5/5/4 1/7/1 6/6/4
f 7/8/1 8/9/2 9/10/2
f 8/9/2 10/11/3 9/10/2
f 10/11/3 11/12/4 12/13/4
f 11/12/4 7/14/1 12/13/4
f 13/15/1 14/16/2 15/17/2
f 14/16/2 16/18/3 15/17/2
f 16/18/3 17/19/4 18/20/4
f 17/19/4 13/21/1 18/20/4
f 19/22/1 20/23/2 21/24/1
f 22/25/2 23/26/3 20/23/2
f 23/26/3 24/27/4 25/28/4
f 24/27/4 21/29/1 25/28/4
f 26/30/1 27/31/2 28/32/2
f 27/31/2 29/33/3 28/32/2
f 29/33/3 30/34/4 31/35/4
f 30/34/4 26/36/1 31/35/4
f 1/1/1 32/37/1 2/2/2
f 2/2/2 33/38/3 4/4/3
f 4/4/3 33/38/3 5/5/4
f 5/5/4 32/39/1 1/7/1
f 7/8/1 34/40/1 8/9/2
f 8/9/2 35/41/3 10/11/3
f 10/11/3 35/41/3 11/12/4
f 11/12/4 34/42/1 7/14/1
f 13/15/1 36/43/1 14/16/2
f 14/16/2 37/44/3 16/18/3
f 16/18/3 37/44/3 17/19/4
f 17/19/4 36/45/1 13/21/1
f 19/22/1 22/25/2 20/23/2
f 22/25/2 38/46/3 23/26/3
f 23/26/3 38/46/3 24/27/4
f 24/27/4 19/47/1 21/29/1
f 26/30/1 39/48/1 27/31/2
f 27/31/2 40/49/3 29/33/3
f 29/33/3 40/49/3 30/34/4
f 30/34/4 39/50/1 26/36/1
