# Blender v2.90.1 OBJ File: 'scenery.blend'
# www.blender.org
mtllib floor_spikes_32x32.mtl
o Plane.125_Plane.023
v 0.000000 0.000000 32.000000
v 32.000000 0.000000 32.000000
v 0.000000 0.000000 0.000000
v 32.000000 0.000000 0.000000
v 15.999997 0.000000 0.610728
v 18.559998 0.000000 1.296677
v 13.439999 0.000000 1.296679
v 20.434048 0.000000 3.170725
v 11.565949 0.000000 3.170730
v 10.880000 0.000000 5.730729
v 21.119999 0.000000 5.730728
v 11.565950 0.000000 8.290729
v 20.434050 0.000000 8.290728
v 13.440001 0.000000 10.164778
v 18.559999 0.000000 10.164778
v 16.000000 0.000000 10.850728
v 15.999998 0.000000 10.850728
v 18.559998 0.000000 11.536676
v 20.434048 0.000000 13.410725
v 13.439999 0.000000 11.536678
v 21.120001 0.000000 15.970728
v 11.565950 0.000000 13.410729
v 13.440000 0.000000 21.776678
v 11.565950 0.000000 23.650728
v 21.120001 0.000000 26.210728
v 15.999999 0.000000 21.090729
v 20.434052 0.000000 28.770727
v 18.559998 0.000000 21.776676
v 16.000000 0.000000 21.090729
v 13.440001 0.000000 20.404778
v 10.880001 0.000000 15.970729
v 18.560001 0.000000 20.404778
v 20.434052 0.000000 18.530727
v 16.000002 0.000000 31.330727
v 10.880001 0.000000 26.210728
v 11.565950 0.000000 18.530727
v 20.434050 0.000000 23.650724
v 11.565952 0.000000 28.770727
v 13.440001 0.000000 30.644777
v 18.560001 0.000000 30.644777
v 15.999997 -15.999998 0.610728
v 18.559998 -15.999998 1.296677
v 13.439999 -15.999998 1.296679
v 20.434048 -15.999998 3.170725
v 11.565949 -15.999998 3.170730
v 10.880000 -15.999998 5.730729
v 21.119999 -15.999998 5.730728
v 11.565950 -15.999998 8.290729
v 20.434050 -15.999998 8.290728
v 13.440001 -15.999998 10.164778
v 18.559999 -15.999998 10.164778
v 16.000000 -15.999998 10.850728
v 15.999998 -15.999998 10.850728
v 18.559998 -15.999998 11.536676
v 20.434048 -15.999998 13.410725
v 13.439999 -15.999998 11.536678
v 21.120001 -15.999998 15.970728
v 11.565950 -15.999998 13.410729
v 13.440000 -15.999998 21.776678
v 11.565950 -15.999998 23.650728
v 21.120001 -15.999998 26.210728
v 15.999999 -15.999998 21.090729
v 20.434052 -15.999998 28.770727
v 18.559998 -15.999998 21.776676
v 16.000000 -15.999998 21.090729
v 13.440001 -15.999998 20.404778
v 10.880001 -15.999998 15.970729
v 18.560001 -15.999998 20.404778
v 20.434052 -15.999998 18.530727
v 16.000002 -15.999998 31.330727
v 10.880001 -15.999998 26.210728
v 11.565950 -15.999998 18.530727
v 20.434050 -15.999998 23.650724
v 11.565952 -15.999998 28.770727
v 13.440001 -15.999998 30.644777
v 18.560001 -15.999998 30.644777
vt 0.000000 0.000000
vt 1.000000 0.000000
vt 0.500000 0.020915
vt 0.638564 0.260915
vt 0.638564 0.420915
vt 0.638564 0.580915
vt 1.000000 1.000000
vt 0.638564 0.740915
vt 0.500000 0.980915
vt 0.000000 1.000000
vt 0.420000 0.682351
vt 0.361436 0.740915
vt 0.361436 0.740915
vt 0.340000 0.180915
vt 0.361436 0.260915
vt 0.361436 0.260915
vt 0.500000 0.340915
vt 0.420000 0.362351
vt 0.420000 0.362351
vt 0.500000 0.660915
vt 0.420000 0.682351
vt 0.580000 0.362351
vt 0.580000 0.362351
vt 0.580000 0.682351
vt 0.580000 0.682351
vt 0.580000 0.042351
vt 0.500000 0.020915
vt 0.500000 0.660915
vt 0.500000 0.340915
vt 0.580000 0.319479
vt 0.580000 0.319479
vt 0.500000 0.660915
vt 0.580000 0.639479
vt 0.580000 0.639479
vt 0.500000 0.340915
vt 0.638564 0.580915
vt 0.420000 0.959479
vt 0.500000 0.980915
vt 0.361436 0.420915
vt 0.361436 0.420915
vt 0.660000 0.500915
vt 0.660000 0.500915
vt 0.580000 0.959479
vt 0.580000 0.959479
vt 0.660000 0.180915
vt 0.660000 0.180915
vt 0.361436 0.580915
vt 0.420000 0.639479
vt 0.420000 0.639479
vt 0.361436 0.900915
vt 0.420000 0.959479
vt 0.420000 0.042351
vt 0.361436 0.100915
vt 0.361436 0.100915
vt 0.500000 0.660915
vt 0.638564 0.900915
vt 0.638564 0.900915
vt 0.638564 0.100915
vt 0.580000 0.042351
vt 0.420000 0.319479
vt 0.420000 0.319479
vt 0.660000 0.820915
vt 0.660000 0.820915
vt 0.340000 0.180915
vt 0.500000 0.340915
vt 0.340000 0.820915
vt 0.361436 0.900915
vt 0.420000 0.042351
vt 0.638564 0.100915
vt 0.638564 0.740915
vt 0.340000 0.500915
vt 0.340000 0.500915
vt 0.361436 0.580915
vt 0.340000 0.820915
vt 0.638564 0.420915
vt 0.638564 0.260915
vn 0.0000 1.0000 0.0000
vn 0.5000 0.0000 -0.8660
vn 0.7071 0.0000 -0.7071
vn 0.9659 0.0000 0.2588
vn 0.8660 0.0000 0.5000
vn 0.2588 0.0000 -0.9659
vn 0.0000 0.0000 -1.0000
vn -0.8660 0.0000 -0.5000
vn -0.5000 0.0000 -0.8660
vn -0.2588 0.0000 -0.9659
vn 0.0000 0.0000 1.0000
vn -0.5000 0.0000 0.8660
vn -0.5000 0.0000 0.8661
vn -0.8660 0.0000 0.5000
vn 0.2588 0.0000 0.9659
vn 0.8660 0.0000 -0.5000
vn -0.9659 0.0000 0.2588
vn -1.0000 0.0000 0.0000
vn 0.5000 0.0000 0.8660
vn 0.7071 0.0000 0.7071
vn -0.7071 0.0000 0.7071
vn -0.7071 0.0000 -0.7071
vn 0.9659 0.0000 -0.2588
vn 1.0000 0.0000 -0.0000
vn -0.9659 0.0000 -0.2588
usemtl None
s 1
f 1/1/1 2/2/1 34/3/1
f 37/4/1 2/2/1 33/5/1
f 19/6/1 4/7/1 13/8/1
f 5/9/1 4/7/1 3/10/1
f 14/11/2 48/12/3 12/13/3
f 35/14/4 60/15/5 24/16/5
f 29/17/6 66/18/2 30/19/2
f 16/20/7 50/21/2 14/11/2
f 33/5/8 68/22/9 32/23/9
f 13/8/8 51/24/9 15/25/9
f 40/26/10 70/27/10 34/3/10
f 15/25/9 52/28/7 16/20/7
f 26/29/11 64/30/12 28/31/12
f 17/32/11 54/33/12 18/34/13
f 32/23/9 65/35/10 29/17/10
f 18/34/13 55/36/14 19/6/14
f 7/37/15 41/38/11 5/9/11
f 30/19/2 72/39/16 36/40/16
f 19/6/14 57/41/17 21/42/17
f 5/9/11 42/43/12 6/44/12
f 37/4/14 61/45/18 25/46/18
f 22/47/5 56/48/19 20/49/19
f 9/50/5 43/51/20 7/37/20
f 39/52/3 74/53/16 38/54/16
f 20/49/19 53/55/11 17/32/11
f 6/44/12 44/56/21 8/57/21
f 27/58/22 76/59/22 40/26/22
f 24/16/5 59/60/20 23/61/20
f 8/57/17 47/62/17 11/63/17
f 38/54/16 71/64/23 35/14/23
f 23/61/15 62/65/11 26/29/11
f 10/66/24 45/67/5 9/50/5
f 34/3/6 75/68/6 39/52/6
f 25/46/18 63/69/25 27/58/25
f 11/63/25 49/70/8 13/8/8
f 36/40/16 67/71/24 31/72/24
f 31/72/24 58/73/5 22/47/5
f 12/13/23 46/74/24 10/66/24
f 21/42/25 69/75/8 33/5/8
f 28/31/12 73/76/14 37/4/14
f 46/74/1 51/24/1 42/43/1
f 58/73/1 65/35/1 55/36/1
f 70/27/1 63/69/1 62/65/1
f 2/2/1 25/46/1 27/58/1
f 2/2/1 27/58/1 40/26/1
f 38/54/1 35/14/1 1/1/1
f 39/52/1 38/54/1 1/1/1
f 2/2/1 40/26/1 34/3/1
f 34/3/1 39/52/1 1/1/1
f 1/1/1 35/14/1 24/16/1
f 1/1/1 24/16/1 36/40/1
f 24/16/1 23/61/1 36/40/1
f 31/72/1 3/10/1 1/1/1
f 36/40/1 31/72/1 1/1/1
f 30/19/1 36/40/1 23/61/1
f 30/19/1 23/61/1 26/29/1
f 29/17/1 30/19/1 26/29/1
f 29/17/11 26/29/11 28/31/12
f 32/23/1 29/17/1 28/31/1
f 37/4/1 25/46/1 2/2/1
f 32/23/1 28/31/1 37/4/1
f 4/7/1 21/42/1 2/2/1
f 21/42/1 33/5/1 2/2/1
f 33/5/1 32/23/1 37/4/1
f 10/66/1 3/10/1 12/13/1
f 3/10/1 31/72/1 22/47/1
f 3/10/1 22/47/1 12/13/1
f 12/13/1 22/47/1 20/49/1
f 14/11/1 12/13/1 20/49/1
f 14/11/1 20/49/1 17/32/1
f 16/20/11 14/11/11 17/32/11
f 16/20/11 17/32/11 18/34/13
f 15/25/1 16/20/1 18/34/1
f 19/6/1 21/42/1 4/7/1
f 15/25/1 18/34/1 19/6/1
f 4/7/1 11/63/1 13/8/1
f 13/8/1 15/25/1 19/6/1
f 3/10/1 10/66/1 9/50/1
f 3/10/1 9/50/1 7/37/1
f 8/57/1 11/63/1 4/7/1
f 6/44/1 8/57/1 4/7/1
f 3/10/1 7/37/1 5/9/1
f 5/9/1 6/44/1 4/7/1
f 14/11/2 50/21/2 48/12/3
f 35/14/4 71/64/4 60/15/5
f 29/17/6 65/35/6 66/18/2
f 16/20/7 52/28/7 50/21/2
f 33/5/8 69/75/8 68/22/9
f 13/8/8 49/70/8 51/24/9
f 40/26/10 76/59/10 70/27/10
f 15/25/9 51/24/9 52/28/7
f 26/29/11 62/65/11 64/30/12
f 17/32/11 53/55/11 54/33/12
f 32/23/9 68/22/9 65/35/10
f 18/34/13 54/33/12 55/36/14
f 7/37/15 43/51/15 41/38/11
f 30/19/2 66/18/2 72/39/16
f 19/6/14 55/36/14 57/41/17
f 5/9/11 41/38/11 42/43/12
f 37/4/14 73/76/14 61/45/18
f 22/47/5 58/73/5 56/48/19
f 9/50/5 45/67/5 43/51/20
f 39/52/3 75/68/3 74/53/16
f 20/49/19 56/48/19 53/55/11
f 6/44/12 42/43/12 44/56/21
f 27/58/22 63/69/22 76/59/22
f 24/16/5 60/15/5 59/60/20
f 8/57/17 44/56/17 47/62/17
f 38/54/16 74/53/16 71/64/23
f 23/61/15 59/60/15 62/65/11
f 10/66/24 46/74/24 45/67/5
f 34/3/6 70/27/6 75/68/6
f 25/46/18 61/45/18 63/69/25
f 11/63/25 47/62/25 49/70/8
f 36/40/16 72/39/16 67/71/24
f 31/72/24 67/71/24 58/73/5
f 12/13/23 48/12/23 46/74/24
f 21/42/25 57/41/25 69/75/8
f 28/31/12 64/30/12 73/76/14
f 42/43/1 41/38/1 43/51/1
f 43/51/1 45/67/1 42/43/1
f 45/67/1 46/74/1 42/43/1
f 46/74/1 48/12/1 50/21/1
f 50/21/1 52/28/1 51/24/1
f 51/24/1 49/70/1 47/62/1
f 47/62/1 44/56/1 42/43/1
f 46/74/1 50/21/1 51/24/1
f 51/24/1 47/62/1 42/43/1
f 55/36/1 54/33/1 53/55/1
f 53/55/1 56/48/1 58/73/1
f 58/73/1 67/71/1 72/39/1
f 72/39/1 66/18/1 58/73/1
f 66/18/1 65/35/1 58/73/1
f 65/35/1 68/22/1 55/36/1
f 68/22/1 69/75/1 55/36/1
f 69/75/1 57/41/1 55/36/1
f 55/36/1 53/55/1 58/73/1
f 62/65/1 59/60/1 60/15/1
f 60/15/1 71/64/1 74/53/1
f 74/53/1 75/68/1 70/27/1
f 70/27/1 76/59/1 63/69/1
f 63/69/1 61/45/1 73/76/1
f 73/76/1 64/30/1 63/69/1
f 64/30/1 62/65/1 63/69/1
f 62/65/1 60/15/1 74/53/1
f 74/53/1 70/27/1 62/65/1
