# Blender v2.90.1 OBJ File: ''
# www.blender.org
mtllib mousehole_tunnel_hor_32x32.mtl
o Mousehole.Entrance.001_Mousehole.Entrance
v 32.000004 31.032356 -16.000002
v 32.000004 30.520140 -19.890665
v 32.000004 31.999994 -32.000000
v 0.000005 32.000000 -0.000000
v 0.000004 32.000000 -32.000000
v 0.000004 31.032362 -16.000000
v -0.000001 0.000001 -32.000000
v 31.999998 -0.000005 -32.000000
v 32.000000 -0.000005 -0.000001
v 32.000004 31.999994 -0.000001
v 32.000004 15.999986 -0.967636
v 32.000000 -0.000005 -0.967637
v 31.999998 -0.000005 -31.032370
v 32.000000 15.999993 -31.032366
v 32.000004 19.890646 -1.479850
v 32.000004 23.516165 -2.981587
v 32.000000 19.890654 -30.520151
v 32.000004 23.516172 -29.018412
v 32.000004 26.629473 -5.370507
v 32.000004 29.018396 -8.483810
v 32.000000 26.629478 -26.629488
v 32.000000 29.018400 -23.516184
v 32.000004 30.520138 -12.109328
v -0.000000 0.000002 -0.967636
v 0.000000 0.000001 -0.000000
v 0.000003 15.999990 -0.967635
v 0.000001 15.999998 -31.032364
v -0.000001 0.000001 -31.032362
v 0.000003 19.890652 -1.479849
v 0.000002 19.890659 -30.520149
v 0.000003 23.516180 -29.018410
v 0.000004 23.516172 -2.981586
v 0.000004 26.629478 -5.370506
v 0.000003 26.629484 -26.629486
v 0.000004 29.018406 -23.516182
v 0.000004 29.018402 -8.483809
v 0.000004 30.520144 -12.109327
v 0.000004 30.520145 -19.890663
v 32.000004 63.999996 -32.000000
v 0.000005 64.000000 -0.000000
v 0.000004 64.000000 -32.000000
v 32.000004 63.999996 -0.000001
v 32.000004 63.999996 -32.000000
v 0.000005 64.000000 -0.000000
v 0.000004 64.000000 -32.000000
v 32.000004 63.999996 -0.000001
vt 0.500000 0.969761
vt 0.621583 0.953754
vt 1.000000 1.000000
vt 0.000000 0.999999
vt 1.000000 0.999999
vt 0.500000 0.969761
vt 0.999900 0.000100
vt 0.000100 0.999900
vt 0.000100 0.000100
vt 1.000000 0.000000
vt 1.000000 1.000000
vt 0.000000 0.000000
vt 1.000000 0.000000
vt 0.000000 1.000000
vt 0.000000 0.000000
vt 0.030238 0.500000
vt 0.030238 0.000000
vt 0.969761 0.000000
vt 1.000000 0.000000
vt 0.969761 0.500000
vt 0.046245 0.621583
vt 0.093174 0.734880
vt 0.953755 0.621583
vt 0.906826 0.734880
vt 0.167828 0.832171
vt 0.265119 0.906825
vt 0.832171 0.832171
vt 0.734881 0.906825
vt 0.378416 0.953754
vt 0.030238 0.000000
vt 0.000000 0.000000
vt 0.030238 0.500000
vt 1.000000 0.000000
vt 0.969761 0.500000
vt 0.969761 0.000000
vt 0.046245 0.621583
vt 0.953755 0.621583
vt 0.906826 0.734880
vt 0.093174 0.734880
vt 0.167828 0.832171
vt 0.832171 0.832171
vt 0.734881 0.906825
vt 0.265119 0.906825
vt 0.378416 0.953754
vt 0.621583 0.953754
vt 0.999900 0.999900
vt 1.000000 0.000000
vt 0.000000 0.000000
vt 1.000000 0.999999
vt 0.000000 0.999999
vt 1.000000 0.999999
vt 1.000000 0.000000
vt 0.000000 0.999999
vt 1.000000 1.000000
vt 0.017037 0.000000
vt 0.000000 1.000000
vt 0.017037 1.000000
vt 1.000000 0.000000
vt 0.982963 1.000000
vt 1.000000 1.000000
vt 0.853553 0.000000
vt 0.750000 1.000000
vt 0.853553 1.000000
vt 0.066987 0.000000
vt 0.066987 1.000000
vt 0.933013 0.000000
vt 0.933013 1.000000
vt 0.146446 0.000000
vt 0.146446 1.000000
vt 0.370590 0.000000
vt 0.250000 1.000000
vt 0.370590 1.000000
vt 0.250000 0.000000
vt 0.500000 0.000000
vt 0.500000 1.000000
vt 0.629409 0.000000
vt 0.629409 1.000000
vt 0.750000 0.000000
vt 1.000000 0.500000
vt 0.000000 0.000000
vt 0.000000 0.500000
vt 0.000000 0.500000
vt 1.000000 0.000000
vt 1.000000 0.500000
vt 0.982963 0.000000
vt 0.000000 0.000000
vt 1.000000 0.000000
vt 0.000000 0.000000
vn 1.0000 0.0000 0.0000
vn -1.0000 0.0000 0.0000
vn -0.0000 0.0000 -1.0000
vn 0.0000 0.0000 1.0000
vn 0.0000 1.0000 0.0000
vn -0.0000 -0.2588 -0.9659
vn -0.0000 -0.0654 -0.9979
vn -0.0000 -0.0654 0.9979
vn -0.0000 -0.2588 0.9659
vn -0.0000 -0.7071 0.7071
vn -0.0000 -0.8660 0.5000
vn -0.0000 -0.5000 -0.8660
vn 0.0000 -0.5000 0.8660
vn -0.0000 -0.7071 -0.7071
vn -0.0000 -0.9659 -0.2588
vn -0.0000 -0.8660 -0.5000
vn -0.0000 -1.0000 0.0000
vn -0.0000 -0.9659 0.2588
usemtl Brick_Wall.011
s off
f 1/1/1 2/2/1 3/3/1
f 4/4/2 5/5/2 6/6/2
f 7/7/3 3/8/3 8/9/3
f 4/4/4 9/10/4 10/11/4
f 5/5/5 10/12/5 3/13/5
f 10/14/1 9/15/1 11/16/1
f 9/15/1 12/17/1 11/16/1
f 13/18/1 8/19/1 14/20/1
f 8/19/1 3/3/1 14/20/1
f 10/14/1 11/16/1 15/21/1
f 10/14/1 15/21/1 16/22/1
f 17/23/1 14/20/1 3/3/1
f 18/24/1 17/23/1 3/3/1
f 10/14/1 16/22/1 19/25/1
f 10/14/1 19/25/1 20/26/1
f 21/27/1 18/24/1 3/3/1
f 22/28/1 21/27/1 3/3/1
f 10/14/1 20/26/1 23/29/1
f 10/14/1 23/29/1 1/1/1
f 2/2/1 22/28/1 3/3/1
f 3/3/1 10/14/1 1/1/1
f 24/30/2 25/31/2 26/32/2
f 25/31/2 4/4/2 26/32/2
f 5/5/2 7/33/2 27/34/2
f 7/33/2 28/35/2 27/34/2
f 29/36/2 26/32/2 4/4/2
f 5/5/2 27/34/2 30/37/2
f 5/5/2 30/37/2 31/38/2
f 32/39/2 29/36/2 4/4/2
f 33/40/2 32/39/2 4/4/2
f 5/5/2 31/38/2 34/41/2
f 5/5/2 34/41/2 35/42/2
f 36/43/2 33/40/2 4/4/2
f 37/44/2 36/43/2 4/4/2
f 5/5/2 35/42/2 38/45/2
f 6/6/2 37/44/2 4/4/2
f 5/5/2 38/45/2 6/6/2
f 7/7/3 5/46/3 3/8/3
f 4/4/4 25/31/4 9/10/4
f 5/5/5 4/4/5 10/12/5
f 10/12/1 3/13/1 39/47/1 42/48/1
f 4/4/1 5/5/1 41/49/1 40/50/1
f 3/13/3 5/5/3 45/51/3 43/52/3
f 10/11/3 4/4/3 44/53/3 46/54/3
s 1
f 15/55/6 26/56/7 29/57/6
f 14/58/8 30/59/9 27/60/8
f 21/61/10 35/62/11 34/63/10
f 16/64/12 29/57/6 32/65/12
f 18/66/13 34/63/10 31/67/13
f 19/68/14 32/65/12 33/69/14
f 23/70/15 36/71/16 37/72/15
f 20/73/16 33/69/14 36/71/16
f 1/74/17 37/72/15 6/75/17
f 2/76/18 6/75/17 38/77/18
f 22/78/11 38/77/18 35/62/11
f 27/79/8 13/80/4 14/81/8
f 11/82/7 24/83/3 26/84/7
f 17/85/9 31/67/13 30/59/9
f 15/55/6 11/86/7 26/56/7
f 14/58/8 17/85/9 30/59/9
f 21/61/10 22/78/11 35/62/11
f 16/64/12 15/55/6 29/57/6
f 18/66/13 21/61/10 34/63/10
f 19/68/14 16/64/12 32/65/12
f 23/70/15 20/73/16 36/71/16
f 20/73/16 19/68/14 33/69/14
f 1/74/17 23/70/15 37/72/15
f 2/76/18 1/74/17 6/75/17
f 22/78/11 2/76/18 38/77/18
f 27/79/8 28/87/4 13/80/4
f 11/82/7 12/88/3 24/83/3
f 17/85/9 18/66/13 31/67/13
