# Blender v2.90.1 OBJ File: ''
# www.blender.org
mtllib OuterWall.mtl
o Cube.046_Column.008
v 5.305871 2.763484 0.000001
v 5.305871 -0.000002 5.305873
v 5.305871 -0.000001 0.000001
v 0.000000 -0.000002 5.305873
v 0.000000 -0.000001 0.000001
v 5.305871 63.999996 0.000011
v 5.305871 61.236511 5.305883
v 5.305871 61.236511 0.000011
v 0.000000 61.236511 5.305883
v 0.000000 61.236511 0.000011
v 32.000000 2.763483 5.305873
v 26.694130 -0.000002 5.305873
v 32.000000 -0.000002 5.305873
v 26.694130 2.763484 0.000001
v 32.000000 2.763484 0.000001
v 32.000000 63.999996 5.305883
v 26.694130 61.236511 5.305883
v 32.000000 61.236511 5.305883
v 26.694130 63.999996 0.000011
v 32.000000 63.999996 0.000011
v 0.000000 63.999996 0.000011
v 5.305871 63.999996 5.305883
v 0.000000 2.763484 0.000001
v 5.305871 2.763483 5.305873
v 32.000000 61.236511 0.000011
v 26.694130 61.236511 0.000011
v 32.000000 -0.000001 0.000001
v 26.694130 -0.000001 0.000001
v 26.694130 63.999996 5.305883
v 26.694130 2.763483 5.305873
v 0.000000 63.999996 5.305883
v 0.000000 2.763483 5.305873
v 5.147222 44.782097 0.000009
v 3.258360 63.999996 3.258360
v 3.639639 44.782097 3.639635
v 0.000012 44.782097 5.147218
v 3.639639 21.981377 3.639632
v 0.000012 2.763478 4.608003
v 3.258360 2.763479 3.258350
v 0.000012 21.981377 5.147215
v 5.147222 21.981377 0.000006
v 4.608013 2.763479 0.000002
v 32.000015 63.999996 4.608013
v 28.360386 44.782097 3.639634
v 32.000015 44.782097 5.147218
v 28.741665 63.999996 3.258359
v 26.852802 44.782097 0.000008
v 28.360386 21.981377 3.639631
v 27.392014 2.763479 0.000001
v 28.741665 2.763479 3.258349
v 26.852802 21.981377 0.000005
v 32.000015 21.981377 5.147215
v 32.000015 2.763478 4.608003
v 4.608013 63.999996 0.000012
v 0.000012 63.999996 4.608013
v 27.392014 63.999996 0.000011
v 32.000000 32.000000 0.000006
v 0.000000 64.000000 0.000013
v 0.000000 32.000000 0.000006
v 32.000000 0.000000 0.000000
v 0.000000 0.000000 0.000000
v 32.000000 64.000000 0.000013
v 5.305871 -61.236515 0.000001
v 5.305871 -64.000000 5.305873
v 5.305871 -64.000000 0.000001
v 0.000000 -64.000000 5.305873
v 0.000000 -64.000000 0.000001
v 5.305871 -0.000004 0.000011
v 5.305871 -2.763490 5.305883
v 5.305871 -2.763489 0.000011
v 0.000000 -2.763490 5.305883
v 0.000000 -2.763489 0.000011
v 32.000000 -61.236515 5.305873
v 26.694130 -64.000000 5.305873
v 32.000000 -64.000000 5.305873
v 26.694130 -61.236515 0.000001
v 32.000000 -61.236515 0.000001
v 32.000000 -0.000005 5.305883
v 26.694130 -2.763490 5.305883
v 32.000000 -2.763490 5.305883
v 26.694130 -0.000004 0.000011
v 32.000000 -0.000004 0.000011
v 0.000000 -0.000004 0.000011
v 5.305871 -0.000005 5.305883
v 0.000000 -61.236515 0.000001
v 5.305871 -61.236515 5.305873
v 32.000000 -2.763489 0.000011
v 26.694130 -2.763489 0.000011
v 32.000000 -64.000000 0.000001
v 26.694130 -64.000000 0.000001
v 26.694130 -0.000005 5.305883
v 26.694130 -61.236515 5.305873
v 0.000000 -0.000005 5.305883
v 0.000000 -61.236515 5.305873
v 5.147222 -19.217903 0.000009
v 3.258360 -0.000004 3.258360
v 3.639639 -19.217903 3.639635
v 0.000012 -19.217903 5.147218
v 3.639639 -42.018623 3.639632
v 0.000012 -61.236523 4.608003
v 3.258360 -61.236523 3.258350
v 0.000012 -42.018623 5.147215
v 5.147222 -42.018623 0.000006
v 4.608013 -61.236523 0.000002
v 32.000015 -0.000005 4.608013
v 28.360386 -19.217903 3.639634
v 32.000015 -19.217903 5.147218
v 28.741665 -0.000004 3.258359
v 26.852802 -19.217903 0.000008
v 28.360386 -42.018623 3.639631
v 27.392014 -61.236523 0.000001
v 28.741665 -61.236523 3.258349
v 26.852802 -42.018623 0.000005
v 32.000015 -42.018623 5.147215
v 32.000015 -61.236523 4.608003
v 4.608013 -0.000004 0.000012
v 0.000012 -0.000005 4.608013
v 27.392014 -0.000004 0.000011
v 32.000000 -32.000000 0.000006
v 0.000000 -0.000000 0.000013
v 0.000000 -32.000000 0.000006
v 32.000000 -64.000000 0.000000
v 0.000000 -64.000000 0.000000
v 32.000000 -0.000000 0.000013
v 5.305871 -125.236511 0.000001
v 5.305871 -128.000000 5.305873
v 5.305871 -128.000000 0.000001
v 0.000000 -128.000000 5.305873
v 0.000000 -128.000000 0.000001
v 5.305871 -64.000000 0.000011
v 5.305871 -66.763489 5.305883
v 5.305871 -66.763489 0.000011
v 0.000000 -66.763489 5.305883
v 0.000000 -66.763489 0.000011
v 32.000000 -125.236511 5.305873
v 26.694130 -128.000000 5.305873
v 32.000000 -128.000000 5.305873
v 26.694130 -125.236511 0.000001
v 32.000000 -125.236511 0.000001
v 32.000000 -64.000000 5.305883
v 26.694130 -66.763489 5.305883
v 32.000000 -66.763489 5.305883
v 26.694130 -64.000000 0.000011
v 32.000000 -64.000000 0.000011
v 0.000000 -64.000000 0.000011
v 5.305871 -64.000000 5.305883
v 0.000000 -125.236511 0.000001
v 5.305871 -125.236511 5.305873
v 32.000000 -66.763489 0.000011
v 26.694130 -66.763489 0.000011
v 32.000000 -128.000000 0.000001
v 26.694130 -128.000000 0.000001
v 26.694130 -64.000000 5.305883
v 26.694130 -125.236511 5.305873
v 0.000000 -64.000000 5.305883
v 0.000000 -125.236511 5.305873
v 5.147222 -83.217903 0.000009
v 3.258360 -64.000000 3.258360
v 3.639639 -83.217903 3.639635
v 0.000012 -83.217903 5.147219
v 3.639639 -106.018623 3.639632
v 0.000012 -125.236526 4.608003
v 3.258360 -125.236526 3.258350
v 0.000012 -106.018623 5.147215
v 5.147222 -106.018623 0.000006
v 4.608013 -125.236526 0.000002
v 32.000015 -64.000000 4.608013
v 28.360386 -83.217903 3.639634
v 32.000015 -83.217903 5.147219
v 28.741665 -64.000000 3.258359
v 26.852802 -83.217903 0.000008
v 28.360386 -106.018623 3.639631
v 27.392014 -125.236526 0.000001
v 28.741665 -125.236526 3.258349
v 26.852802 -106.018623 0.000005
v 32.000015 -106.018623 5.147215
v 32.000015 -125.236526 4.608003
v 4.608013 -64.000000 0.000012
v 0.000012 -64.000000 4.608013
v 27.392014 -64.000000 0.000011
v 32.000000 -96.000000 0.000006
v 0.000000 -64.000000 0.000013
v 0.000000 -96.000000 0.000006
v 32.000000 -128.000000 0.000000
v 0.000000 -128.000000 0.000000
v 32.000000 -64.000000 0.000013
vt 0.625000 0.625000
vt 0.375000 0.750000
vt 0.375000 0.625000
vt 0.250000 0.750000
vt 0.250000 0.625000
vt 0.625000 0.625000
vt 0.375000 0.750000
vt 0.375000 0.625000
vt 0.250000 0.750000
vt 0.250000 0.625000
vt 0.625000 0.875000
vt 0.375000 1.000000
vt 0.375000 0.875000
vt 0.875000 0.625000
vt 0.750000 0.750000
vt 0.750000 0.625000
vt 0.625000 0.875000
vt 0.375000 1.000000
vt 0.375000 0.875000
vt 0.875000 0.625000
vt 0.750000 0.750000
vt 0.750000 0.625000
vt 0.750000 0.625000
vt 0.625000 0.750000
vt 0.375000 0.875000
vt 0.750000 0.625000
vt 0.625000 0.750000
vt 0.375000 0.875000
vt 0.250000 0.625000
vt 0.125000 0.750000
vt 0.125000 0.625000
vt 0.250000 0.625000
vt 0.125000 0.750000
vt 0.125000 0.625000
vt 0.625000 0.000000
vt 0.375000 0.125000
vt 0.375000 0.000000
vt 0.625000 0.000000
vt 0.375000 0.125000
vt 0.375000 0.000000
vt 0.625000 1.000000
vt 0.875000 0.750000
vt 0.625000 1.000000
vt 0.875000 0.750000
vt 0.750000 0.750000
vt 0.625000 0.875000
vt 0.750000 0.750000
vt 0.625000 0.875000
vt 0.250000 0.750000
vt 0.250000 0.750000
vt 0.625000 0.125000
vt 0.625000 0.125000
vt 0.625000 0.625000
vt 0.375000 0.750000
vt 0.375000 0.625000
vt 0.250000 0.750000
vt 0.250000 0.625000
vt 0.625000 0.625000
vt 0.375000 0.750000
vt 0.375000 0.625000
vt 0.250000 0.750000
vt 0.250000 0.625000
vt 0.625000 0.875000
vt 0.375000 1.000000
vt 0.375000 0.875000
vt 0.875000 0.625000
vt 0.750000 0.750000
vt 0.750000 0.625000
vt 0.625000 0.875000
vt 0.375000 1.000000
vt 0.375000 0.875000
vt 0.875000 0.625000
vt 0.750000 0.750000
vt 0.750000 0.625000
vt 0.750000 0.625000
vt 0.625000 0.750000
vt 0.375000 0.875000
vt 0.750000 0.625000
vt 0.625000 0.750000
vt 0.375000 0.875000
vt 0.250000 0.625000
vt 0.125000 0.750000
vt 0.125000 0.625000
vt 0.250000 0.625000
vt 0.125000 0.750000
vt 0.125000 0.625000
vt 0.625000 0.000000
vt 0.375000 0.125000
vt 0.375000 0.000000
vt 0.625000 0.000000
vt 0.375000 0.125000
vt 0.375000 0.000000
vt 0.625000 1.000000
vt 0.875000 0.750000
vt 0.625000 1.000000
vt 0.875000 0.750000
vt 0.750000 0.750000
vt 0.625000 0.875000
vt 0.750000 0.750000
vt 0.625000 0.875000
vt 0.250000 0.750000
vt 0.250000 0.750000
vt 0.625000 0.125000
vt 0.625000 0.125000
vt 0.625000 0.625000
vt 0.375000 0.750000
vt 0.375000 0.625000
vt 0.250000 0.750000
vt 0.250000 0.625000
vt 0.625000 0.625000
vt 0.375000 0.750000
vt 0.375000 0.625000
vt 0.250000 0.750000
vt 0.250000 0.625000
vt 0.625000 0.875000
vt 0.375000 1.000000
vt 0.375000 0.875000
vt 0.875000 0.625000
vt 0.750000 0.750000
vt 0.750000 0.625000
vt 0.625000 0.875000
vt 0.375000 1.000000
vt 0.375000 0.875000
vt 0.875000 0.625000
vt 0.750000 0.750000
vt 0.750000 0.625000
vt 0.750000 0.625000
vt 0.625000 0.750000
vt 0.375000 0.875000
vt 0.750000 0.625000
vt 0.625000 0.750000
vt 0.375000 0.875000
vt 0.250000 0.625000
vt 0.125000 0.750000
vt 0.125000 0.625000
vt 0.250000 0.625000
vt 0.125000 0.750000
vt 0.125000 0.625000
vt 0.625000 0.000000
vt 0.375000 0.125000
vt 0.375000 0.000000
vt 0.625000 0.000000
vt 0.375000 0.125000
vt 0.375000 0.000000
vt 0.625000 1.000000
vt 0.875000 0.750000
vt 0.625000 1.000000
vt 0.875000 0.750000
vt 0.750000 0.750000
vt 0.625000 0.875000
vt 0.750000 0.750000
vt 0.625000 0.875000
vt 0.250000 0.750000
vt 0.250000 0.750000
vt 0.625000 0.125000
vt 0.625000 0.125000
vt 0.750000 0.833333
vt 0.625000 1.000000
vt 0.625000 0.833333
vt 0.500000 0.833333
vt 0.625000 0.666667
vt 0.500000 0.500000
vt 0.625000 0.500000
vt 0.500000 0.666667
vt 0.750000 0.666667
vt 0.750000 0.500000
vt 0.500000 1.000000
vt 0.375000 0.833333
vt 0.500000 0.833333
vt 0.375000 1.000000
vt 0.250000 0.833333
vt 0.375000 0.666667
vt 0.250000 0.500000
vt 0.375000 0.500000
vt 0.250000 0.666667
vt 0.500000 0.666667
vt 0.500000 0.500000
vt 0.750000 1.000000
vt 0.500000 1.000000
vt 0.250000 1.000000
vt 0.750000 0.833333
vt 0.625000 1.000000
vt 0.625000 0.833333
vt 0.500000 0.833333
vt 0.625000 0.666667
vt 0.500000 0.500000
vt 0.625000 0.500000
vt 0.500000 0.666667
vt 0.750000 0.666667
vt 0.750000 0.500000
vt 0.500000 1.000000
vt 0.375000 0.833333
vt 0.500000 0.833333
vt 0.375000 1.000000
vt 0.250000 0.833333
vt 0.375000 0.666667
vt 0.250000 0.500000
vt 0.375000 0.500000
vt 0.250000 0.666667
vt 0.500000 0.666667
vt 0.500000 0.500000
vt 0.750000 1.000000
vt 0.500000 1.000000
vt 0.250000 1.000000
vt 0.750000 0.833333
vt 0.625000 1.000000
vt 0.625000 0.833333
vt 0.500000 0.833333
vt 0.625000 0.666667
vt 0.500000 0.500000
vt 0.625000 0.500000
vt 0.500000 0.666667
vt 0.750000 0.666667
vt 0.750000 0.500000
vt 0.500000 1.000000
vt 0.375000 0.833333
vt 0.500000 0.833333
vt 0.375000 1.000000
vt 0.250000 0.833333
vt 0.375000 0.666667
vt 0.250000 0.500000
vt 0.375000 0.500000
vt 0.250000 0.666667
vt 0.500000 0.666667
vt 0.500000 0.500000
vt 0.750000 1.000000
vt 0.500000 1.000000
vt 0.250000 1.000000
vt 1.000000 0.000000
vt 0.000000 1.000000
vt 0.000000 0.000000
vt 1.000000 0.000000
vt 0.000000 1.000000
vt 0.000000 0.000000
vt 1.000000 1.000000
vt 1.000000 1.000000
vt 1.000000 0.000000
vt 0.000000 1.000000
vt 0.000000 0.000000
vt 1.000000 0.000000
vt 0.000000 1.000000
vt 0.000000 0.000000
vt 1.000000 1.000000
vt 1.000000 1.000000
vt 1.000000 0.000000
vt 0.000000 1.000000
vt 0.000000 0.000000
vt 1.000000 0.000000
vt 0.000000 1.000000
vt 0.000000 0.000000
vt 1.000000 1.000000
vt 1.000000 1.000000
vn 1.0000 0.0000 0.0000
vn 0.0000 -1.0000 -0.0000
vn 0.0000 -0.0000 1.0000
vn 0.0000 1.0000 0.0000
vn -1.0000 0.0000 0.0000
vn 0.9238 0.0129 0.3827
vn 0.7068 0.0280 0.7068
vn 0.7070 0.0140 0.7070
vn 0.3827 0.0129 0.9238
vn 0.7070 -0.0140 0.7070
vn 0.3826 -0.0259 0.9236
vn 0.7068 -0.0280 0.7068
vn 0.3827 -0.0129 0.9238
vn 0.9238 -0.0129 0.3827
vn 0.9236 -0.0259 0.3826
vn -0.3826 0.0259 0.9236
vn -0.7070 0.0140 0.7070
vn -0.3827 0.0129 0.9238
vn -0.7068 0.0280 0.7068
vn -0.9238 0.0129 0.3827
vn -0.7070 -0.0140 0.7070
vn -0.9236 -0.0259 0.3826
vn -0.7068 -0.0280 0.7068
vn -0.9238 -0.0129 0.3827
vn -0.3827 -0.0129 0.9238
vn -0.3826 -0.0259 0.9236
vn 0.9236 0.0259 0.3826
vn 0.3826 0.0259 0.9236
vn -0.9236 0.0259 0.3826
usemtl Borders
s off
f 1/1/1 2/2/1 3/3/1
f 3/3/2 4/4/2 5/5/2
f 6/6/1 7/7/1 8/8/1
f 8/8/2 9/9/2 10/10/2
f 11/11/3 12/12/3 13/13/3
f 14/14/4 11/15/4 15/16/4
f 16/17/3 17/18/3 18/19/3
f 19/20/4 16/21/4 20/22/4
f 21/23/4 22/24/4 6/6/4
f 22/24/3 9/25/3 7/7/3
f 23/26/4 24/27/4 1/1/4
f 24/27/3 4/28/3 2/2/3
f 25/29/2 17/30/2 26/31/2
f 27/32/2 12/33/2 28/34/2
f 29/35/5 26/36/5 17/37/5
f 30/38/5 28/39/5 12/40/5
f 1/1/1 24/27/1 2/2/1
f 3/3/2 2/2/2 4/4/2
f 6/6/1 22/24/1 7/7/1
f 8/8/2 7/7/2 9/9/2
f 11/11/3 30/41/3 12/12/3
f 14/14/4 30/42/4 11/15/4
f 16/17/3 29/43/3 17/18/3
f 19/20/4 29/44/4 16/21/4
f 21/23/4 31/45/4 22/24/4
f 22/24/3 31/46/3 9/25/3
f 23/26/4 32/47/4 24/27/4
f 24/27/3 32/48/3 4/28/3
f 25/29/2 18/49/2 17/30/2
f 27/32/2 13/50/2 12/33/2
f 29/35/5 19/51/5 26/36/5
f 30/38/5 14/52/5 28/39/5
f 63/53/1 64/54/1 65/55/1
f 65/55/2 66/56/2 67/57/2
f 68/58/1 69/59/1 70/60/1
f 70/60/2 71/61/2 72/62/2
f 73/63/3 74/64/3 75/65/3
f 76/66/4 73/67/4 77/68/4
f 78/69/3 79/70/3 80/71/3
f 81/72/4 78/73/4 82/74/4
f 83/75/4 84/76/4 68/58/4
f 84/76/3 71/77/3 69/59/3
f 85/78/4 86/79/4 63/53/4
f 86/79/3 66/80/3 64/54/3
f 87/81/2 79/82/2 88/83/2
f 89/84/2 74/85/2 90/86/2
f 91/87/5 88/88/5 79/89/5
f 92/90/5 90/91/5 74/92/5
f 63/53/1 86/79/1 64/54/1
f 65/55/2 64/54/2 66/56/2
f 68/58/1 84/76/1 69/59/1
f 70/60/2 69/59/2 71/61/2
f 73/63/3 92/93/3 74/64/3
f 76/66/4 92/94/4 73/67/4
f 78/69/3 91/95/3 79/70/3
f 81/72/4 91/96/4 78/73/4
f 83/75/4 93/97/4 84/76/4
f 84/76/3 93/98/3 71/77/3
f 85/78/4 94/99/4 86/79/4
f 86/79/3 94/100/3 66/80/3
f 87/81/2 80/101/2 79/82/2
f 89/84/2 75/102/2 74/85/2
f 91/87/5 81/103/5 88/88/5
f 92/90/5 76/104/5 90/91/5
f 125/105/1 126/106/1 127/107/1
f 127/107/2 128/108/2 129/109/2
f 130/110/1 131/111/1 132/112/1
f 132/112/2 133/113/2 134/114/2
f 135/115/3 136/116/3 137/117/3
f 138/118/4 135/119/4 139/120/4
f 140/121/3 141/122/3 142/123/3
f 143/124/4 140/125/4 144/126/4
f 145/127/4 146/128/4 130/110/4
f 146/128/3 133/129/3 131/111/3
f 147/130/4 148/131/4 125/105/4
f 148/131/3 128/132/3 126/106/3
f 149/133/2 141/134/2 150/135/2
f 151/136/2 136/137/2 152/138/2
f 153/139/5 150/140/5 141/141/5
f 154/142/5 152/143/5 136/144/5
f 125/105/1 148/131/1 126/106/1
f 127/107/2 126/106/2 128/108/2
f 130/110/1 146/128/1 131/111/1
f 132/112/2 131/111/2 133/113/2
f 135/115/3 154/145/3 136/116/3
f 138/118/4 154/146/4 135/119/4
f 140/121/3 153/147/3 141/122/3
f 143/124/4 153/148/4 140/125/4
f 145/127/4 155/149/4 146/128/4
f 146/128/3 155/150/3 133/129/3
f 147/130/4 156/151/4 148/131/4
f 148/131/3 156/152/3 128/132/3
f 149/133/2 142/153/2 141/134/2
f 151/136/2 137/154/2 136/137/2
f 153/139/5 143/155/5 150/140/5
f 154/142/5 138/156/5 152/143/5
s 1
f 33/157/6 34/158/7 35/159/8
f 34/158/7 36/160/9 35/159/8
f 37/161/10 38/162/11 39/163/12
f 35/159/8 40/164/13 37/161/10
f 41/165/14 39/163/12 42/166/15
f 33/157/6 37/161/10 41/165/14
f 43/167/16 44/168/17 45/169/18
f 46/170/19 47/171/20 44/168/17
f 48/172/21 49/173/22 50/174/23
f 44/168/17 51/175/24 48/172/21
f 52/176/25 50/174/23 53/177/26
f 45/169/18 48/172/21 52/176/25
f 33/157/6 54/178/27 34/158/7
f 34/158/7 55/179/28 36/160/9
f 37/161/10 40/164/13 38/162/11
f 35/159/8 36/160/9 40/164/13
f 41/165/14 37/161/10 39/163/12
f 33/157/6 35/159/8 37/161/10
f 43/167/16 46/170/19 44/168/17
f 46/170/19 56/180/29 47/171/20
f 48/172/21 51/175/24 49/173/22
f 44/168/17 47/171/20 51/175/24
f 52/176/25 48/172/21 50/174/23
f 45/169/18 44/168/17 48/172/21
f 95/181/6 96/182/7 97/183/8
f 96/182/7 98/184/9 97/183/8
f 99/185/10 100/186/11 101/187/12
f 97/183/8 102/188/13 99/185/10
f 103/189/14 101/187/12 104/190/15
f 95/181/6 99/185/10 103/189/14
f 105/191/16 106/192/17 107/193/18
f 108/194/19 109/195/20 106/192/17
f 110/196/21 111/197/22 112/198/23
f 106/192/17 113/199/24 110/196/21
f 114/200/25 112/198/23 115/201/26
f 107/193/18 110/196/21 114/200/25
f 95/181/6 116/202/27 96/182/7
f 96/182/7 117/203/28 98/184/9
f 99/185/10 102/188/13 100/186/11
f 97/183/8 98/184/9 102/188/13
f 103/189/14 99/185/10 101/187/12
f 95/181/6 97/183/8 99/185/10
f 105/191/16 108/194/19 106/192/17
f 108/194/19 118/204/29 109/195/20
f 110/196/21 113/199/24 111/197/22
f 106/192/17 109/195/20 113/199/24
f 114/200/25 110/196/21 112/198/23
f 107/193/18 106/192/17 110/196/21
f 157/205/6 158/206/7 159/207/8
f 158/206/7 160/208/9 159/207/8
f 161/209/10 162/210/11 163/211/12
f 159/207/8 164/212/13 161/209/10
f 165/213/14 163/211/12 166/214/15
f 157/205/6 161/209/10 165/213/14
f 167/215/16 168/216/17 169/217/18
f 170/218/19 171/219/20 168/216/17
f 172/220/21 173/221/22 174/222/23
f 168/216/17 175/223/24 172/220/21
f 176/224/25 174/222/23 177/225/26
f 169/217/18 172/220/21 176/224/25
f 157/205/6 178/226/27 158/206/7
f 158/206/7 179/227/28 160/208/9
f 161/209/10 164/212/13 162/210/11
f 159/207/8 160/208/9 164/212/13
f 165/213/14 161/209/10 163/211/12
f 157/205/6 159/207/8 161/209/10
f 167/215/16 170/218/19 168/216/17
f 170/218/19 180/228/29 171/219/20
f 172/220/21 175/223/24 173/221/22
f 168/216/17 171/219/20 175/223/24
f 176/224/25 172/220/21 174/222/23
f 169/217/18 168/216/17 172/220/21
usemtl Brick_Wall
s off
f 57/229/3 58/230/3 59/231/3
f 60/232/3 59/233/3 61/234/3
f 57/229/3 62/235/3 58/230/3
f 60/232/3 57/236/3 59/233/3
f 119/237/3 120/238/3 121/239/3
f 122/240/3 121/241/3 123/242/3
f 119/237/3 124/243/3 120/238/3
f 122/240/3 119/244/3 121/241/3
f 181/245/3 182/246/3 183/247/3
f 184/248/3 183/249/3 185/250/3
f 181/245/3 186/251/3 182/246/3
f 184/248/3 181/252/3 183/249/3
