# Blender v2.90.1 OBJ File: ''
# www.blender.org
mtllib StairColmesh.mtl
o Plane.018_Wall.001
v 64.605591 0.000000 0.000000
v 64.605591 31.999990 64.000008
v 0.605592 0.000000 0.000000
v 0.605588 31.999990 64.000008
v 0.605591 -0.000021 128.000000
v 0.605591 31.999990 64.000008
v 58.651428 31.999990 64.000008
v 64.605591 36.438770 66.219398
v 64.605591 31.999990 64.000008
v 64.605591 -0.000021 128.000000
v 58.651428 -0.000021 128.000000
v 6.559755 31.999990 64.000008
v 6.559755 -0.000021 128.000000
v 6.559755 36.438770 66.219398
v 0.605591 4.438756 130.219391
v 58.651428 4.438756 130.219391
v 0.605591 31.999990 64.000008
v 0.605591 64.000000 0.000010
v 58.651428 64.000000 0.000010
v 64.605591 68.438782 2.219402
v 64.605591 64.000000 0.000010
v 64.605591 31.999990 64.000008
v 58.651428 31.999990 64.000008
v 6.559755 64.000000 0.000010
v 6.559755 31.999990 64.000008
v 6.559755 68.438782 2.219402
v 0.605591 36.438766 66.219398
v 58.651428 36.438766 66.219398
v 58.651428 36.438770 66.219398
v 0.605591 36.438770 66.219398
v 6.559755 4.438756 130.219391
v 64.605591 4.438756 130.219391
v 58.651428 68.438782 2.219402
v 0.605591 68.438782 2.219402
v 6.559755 36.438766 66.219398
v 64.605591 36.438766 66.219398
vt 0.000000 0.000000
vt 2.000000 1.000000
vt 2.000000 0.000000
vt 0.000000 0.000000
vt 0.000000 0.000000
vt 0.000000 0.000000
vt 2.000000 0.000000
vt 2.000000 1.000000
vt 0.000000 0.000000
vt 0.666667 0.000000
vt 0.333333 0.500000
vt 0.333333 0.000000
vt 0.000000 0.000000
vt 0.000000 0.000000
vt 0.000000 0.000000
vt 0.000000 0.000000
vt 0.000000 0.000000
vt 0.000000 0.000000
vt 0.000000 0.000000
vt 0.000000 0.000000
vt 2.000000 1.000000
vt 0.000000 0.000000
vt 0.000000 0.000000
vt 0.000000 0.000000
vt 2.000000 1.000000
vt 0.000000 0.000000
vt 0.666667 0.000000
vt 0.333333 0.500000
vt 0.333333 0.000000
vt 0.000000 0.000000
vt 0.000000 0.000000
vt 0.000000 0.000000
vt 0.000000 0.000000
vt 0.000000 0.000000
vt 0.000000 0.000000
vt 0.000000 0.000000
vt 0.000000 0.000000
vt 0.666667 0.500000
vt 0.000000 0.000000
vt 0.000000 0.000000
vt 0.000000 0.000000
vt 0.000000 0.000000
vt 0.666667 0.500000
vt 0.000000 0.000000
vt 0.000000 0.000000
vt 0.000000 0.000000
vt 1.000000 0.500000
vt 1.000000 0.000000
vt 1.000000 0.000000
vt 0.666667 0.500000
vt 0.666667 0.000000
vt 0.333333 0.000000
vt 0.000000 0.500000
vt 0.000000 0.500000
vt 1.000000 0.500000
vt 1.000000 0.000000
vt 1.000000 0.000000
vt 0.666667 0.500000
vt 0.666667 0.000000
vt 0.333333 0.000000
vt 0.000000 0.500000
vt 0.000000 0.500000
vt 1.000000 0.500000
vt 0.333333 0.500000
vt 1.000000 0.500000
vt 0.333333 0.500000
vn -1.0000 -0.0000 -0.0000
vn 0.0000 0.4472 -0.8944
vn 1.0000 0.0000 0.0000
vn 0.0000 0.8944 0.4472
vn 0.0000 -0.4472 0.8944
usemtl Brick_Wall.009
s 1
f 5/1/1 6/2/1 3/3/1
f 7/4/2 8/5/2 9/6/2
f 1/7/3 9/8/3 10/9/3
f 11/10/4 12/11/4 13/12/4
f 6/13/2 14/14/2 12/15/2
f 13/16/5 15/17/5 5/1/5
f 10/9/5 16/18/5 11/19/5
f 17/20/1 18/21/1 3/3/1
f 19/22/2 20/23/2 21/24/2
f 1/7/3 21/25/3 22/26/3
f 23/27/4 24/28/4 25/29/4
f 18/30/2 26/31/2 24/32/2
f 25/33/5 27/34/5 17/20/5
f 22/26/5 28/35/5 23/36/5
f 7/4/2 29/37/2 8/5/2
f 11/10/4 7/38/4 12/11/4
f 6/13/2 30/39/2 14/14/2
f 13/16/5 31/40/5 15/17/5
f 10/9/5 32/41/5 16/18/5
f 19/22/2 33/42/2 20/23/2
f 23/27/4 19/43/4 24/28/4
f 18/30/2 34/44/2 26/31/2
f 25/33/5 35/45/5 27/34/5
f 22/26/5 36/46/5 28/35/5
usemtl BorderStone.002
f 9/47/3 32/48/3 10/49/3
f 32/48/4 29/50/4 16/51/4
f 31/52/4 30/53/4 15/17/4
f 7/38/1 16/51/1 29/50/1
f 6/54/1 15/17/1 30/53/1
f 12/11/3 31/52/3 13/12/3
f 21/55/3 36/56/3 22/57/3
f 36/56/4 33/58/4 28/59/4
f 35/60/4 34/61/4 27/34/4
f 23/27/1 33/58/1 19/43/1
f 17/20/1 34/61/1 18/62/1
f 24/28/3 35/60/3 25/29/3
f 9/47/3 8/63/3 32/48/3
f 32/48/4 8/63/4 29/50/4
f 31/52/4 14/64/4 30/53/4
f 7/38/1 11/10/1 16/51/1
f 6/54/1 5/1/1 15/17/1
f 12/11/3 14/64/3 31/52/3
f 21/55/3 20/65/3 36/56/3
f 36/56/4 20/65/4 33/58/4
f 35/60/4 26/66/4 34/61/4
f 23/27/1 28/59/1 33/58/1
f 17/20/1 27/34/1 34/61/1
f 24/28/3 26/66/3 35/60/3
l 1 2
l 3 4
