# Blender v2.90.1 OBJ File: 'scenery.blend'
# www.blender.org
mtllib stairs_vert_64x128x64.mtl
o Plane.017_Wall
v 0.605592 0.000000 0.000000
v 0.605591 0.000000 32.000000
v 0.605591 32.000000 0.000000
v 0.605589 32.000000 32.000000
v 0.605591 0.000000 32.000000
v 0.605589 0.000000 64.000000
v 0.605589 32.000000 32.000000
v 0.605588 32.000000 64.000000
vt 1.000000 0.000000
vt 0.000000 1.000000
vt 0.000000 0.000000
vt 1.000000 0.000000
vt 0.000000 1.000000
vt 0.000000 0.000000
vt 1.000000 1.000000
vt 1.000000 1.000000
vn -1.0000 -0.0000 -0.0000
usemtl Brick_Wall
s off
f 2/1/1 3/2/1 1/3/1
f 6/4/1 7/5/1 5/6/1
f 2/1/1 4/7/1 3/2/1
f 6/4/1 8/8/1 7/5/1
o Plane.018_Wall
v 64.605591 0.000000 64.000000
v 64.605591 0.000000 32.000000
v 64.605591 32.000000 64.000000
v 64.605591 32.000000 32.000000
v 64.605591 0.000000 32.000000
v 64.605591 0.000000 0.000000
v 64.605591 32.000000 32.000000
v 64.605591 32.000000 0.000000
vt 1.000000 0.000000
vt 0.000000 1.000000
vt 0.000000 0.000000
vt 1.000000 0.000000
vt 0.000000 1.000000
vt 0.000000 0.000000
vt 1.000000 1.000000
vt 1.000000 1.000000
vn 1.0000 0.0000 0.0000
usemtl Brick_Wall
s off
f 10/9/2 11/10/2 9/11/2
f 14/12/2 15/13/2 13/14/2
f 10/9/2 12/15/2 11/10/2
f 14/12/2 16/16/2 15/13/2
o Cube.016_Cube.020
v 3.638552 0.000000 132.360931
v 3.638552 3.995536 132.360931
v 3.638552 0.000000 123.639076
v 3.638552 3.995536 123.639076
v 61.572632 0.000000 132.360931
v 61.572632 3.995536 132.360931
v 61.572632 0.000000 123.639076
v 61.572632 3.995536 123.639076
v 3.638552 3.995536 123.813515
v 3.638552 7.991071 123.813515
v 3.638552 3.995536 115.091660
v 3.638552 7.991071 115.091660
v 61.572632 3.995536 123.813515
v 61.572632 7.991071 123.813515
v 61.572632 3.995536 115.091660
v 61.572632 7.991071 115.091660
v 3.638552 7.991071 115.266098
v 3.638552 11.986608 115.266098
v 3.638552 7.991071 106.544243
v 3.638552 11.986608 106.544243
v 61.572632 7.991071 115.266098
v 61.572632 11.986608 115.266098
v 61.572632 7.991071 106.544243
v 61.572632 11.986608 106.544243
v 3.638552 11.986608 106.718681
v 3.638552 15.982142 106.718681
v 3.638552 11.986608 97.996826
v 3.638552 15.982142 97.996826
v 61.572632 11.986608 106.718681
v 61.572632 15.982142 106.718681
v 61.572632 11.986608 97.996826
v 61.572632 15.982142 97.996826
v 3.638552 15.982142 98.171265
v 3.638552 19.977678 98.171265
v 3.638552 15.982142 89.449417
v 3.638552 19.977678 89.449417
v 61.572632 15.982142 98.171265
v 61.572632 19.977678 98.171265
v 61.572632 15.982142 89.449417
v 61.572632 19.977678 89.449417
v 3.638552 19.977678 89.623856
v 3.638552 23.973215 89.623856
v 3.638552 19.977678 80.902000
v 3.638552 23.973215 80.902000
v 61.572632 19.977678 89.623856
v 61.572632 23.973215 89.623856
v 61.572632 19.977678 80.902000
v 61.572632 23.973215 80.902000
v 3.638552 23.973215 81.076439
v 3.638552 27.968750 81.076439
v 3.638552 23.973215 72.354584
v 3.638552 27.968750 72.354584
v 61.572632 23.973215 81.076439
v 61.572632 27.968750 81.076439
v 61.572632 23.973215 72.354584
v 61.572632 27.968750 72.354584
v 3.638552 27.968750 72.529022
v 3.638552 31.964285 72.529022
v 3.638552 27.968750 63.807175
v 3.638552 31.964285 63.807175
v 61.572632 27.968750 72.529022
v 61.572632 31.964285 72.529022
v 61.572632 27.968750 63.807175
v 61.572632 31.964285 63.807175
v 3.638552 31.964285 68.263168
v 3.638552 35.959820 68.263168
v 3.638552 31.964285 59.541313
v 3.638552 35.959820 59.541313
v 61.572632 31.964285 68.263168
v 61.572632 35.959820 68.263168
v 61.572632 31.964285 59.541313
v 61.572632 35.959820 59.541313
v 3.638552 35.959820 59.715752
v 3.638552 39.955357 59.715752
v 3.638552 35.959820 50.993904
v 3.638552 39.955357 50.993904
v 61.572632 35.959820 59.715752
v 61.572632 39.955357 59.715752
v 61.572632 35.959820 50.993904
v 61.572632 39.955357 50.993904
v 3.638552 39.955357 51.168335
v 3.638552 43.950893 51.168335
v 3.638552 39.955357 42.446487
v 3.638552 43.950893 42.446487
v 61.572632 39.955357 51.168335
v 61.572632 43.950893 51.168335
v 61.572632 39.955357 42.446487
v 61.572632 43.950893 42.446487
v 3.638552 43.950893 42.620918
v 3.638552 47.946430 42.620918
v 3.638552 43.950893 33.899071
v 3.638552 47.946430 33.899071
v 61.572632 43.950893 42.620918
v 61.572632 47.946430 42.620918
v 61.572632 43.950893 33.899071
v 61.572632 47.946430 33.899071
v 3.638552 47.946430 34.073509
v 3.638552 51.941967 34.073509
v 3.638552 47.946430 25.351654
v 3.638552 51.941967 25.351654
v 61.572632 47.946430 34.073509
v 61.572632 51.941967 34.073509
v 61.572632 47.946430 25.351654
v 61.572632 51.941967 25.351654
v 3.638552 51.941967 25.526100
v 3.638552 55.937500 25.526100
v 3.638552 51.941967 16.804245
v 3.638552 55.937500 16.804245
v 61.572632 51.941967 25.526100
v 61.572632 55.937500 25.526100
v 61.572632 51.941967 16.804245
v 61.572632 55.937500 16.804245
v 3.638552 55.937500 16.978683
v 3.638552 59.933033 16.978683
v 3.638552 55.937500 8.256828
v 3.638552 59.933033 8.256828
v 61.572632 55.937500 16.978683
v 61.572632 59.933033 16.978683
v 61.572632 55.937500 8.256828
v 61.572632 59.933033 8.256828
v 3.638552 59.933033 8.431259
v 3.638552 63.928570 8.431259
v 3.638552 59.933033 -0.290588
v 3.638552 63.928570 -0.290588
v 61.572632 59.933033 8.431259
v 61.572632 63.928570 8.431259
v 61.572632 59.933033 -0.290588
v 61.572632 63.928570 -0.290588
vt 0.625000 0.000000
vt 0.375000 0.250000
vt 0.375000 0.000000
vt 0.625000 0.500000
vt 0.375000 0.750000
vt 0.375000 0.500000
vt 0.625000 0.750000
vt 0.375000 1.000000
vt 0.875000 0.500000
vt 0.625000 0.000000
vt 0.375000 0.250000
vt 0.375000 0.000000
vt 0.625000 0.500000
vt 0.375000 0.750000
vt 0.375000 0.500000
vt 0.625000 0.750000
vt 0.375000 1.000000
vt 0.875000 0.500000
vt 0.625000 0.000000
vt 0.375000 0.250000
vt 0.375000 0.000000
vt 0.625000 0.500000
vt 0.375000 0.750000
vt 0.375000 0.500000
vt 0.625000 0.750000
vt 0.375000 1.000000
vt 0.875000 0.500000
vt 0.625000 0.000000
vt 0.375000 0.250000
vt 0.375000 0.000000
vt 0.625000 0.500000
vt 0.375000 0.750000
vt 0.375000 0.500000
vt 0.625000 0.750000
vt 0.375000 1.000000
vt 0.875000 0.500000
vt 0.625000 0.000000
vt 0.375000 0.250000
vt 0.375000 0.000000
vt 0.625000 0.500000
vt 0.375000 0.750000
vt 0.375000 0.500000
vt 0.625000 0.750000
vt 0.375000 1.000000
vt 0.875000 0.500000
vt 0.625000 0.000000
vt 0.375000 0.250000
vt 0.375000 0.000000
vt 0.625000 0.500000
vt 0.375000 0.750000
vt 0.375000 0.500000
vt 0.625000 0.750000
vt 0.375000 1.000000
vt 0.875000 0.500000
vt 0.625000 0.000000
vt 0.375000 0.250000
vt 0.375000 0.000000
vt 0.625000 0.500000
vt 0.375000 0.750000
vt 0.375000 0.500000
vt 0.625000 0.750000
vt 0.375000 1.000000
vt 0.875000 0.500000
vt 0.625000 0.000000
vt 0.375000 0.250000
vt 0.375000 0.000000
vt 0.625000 0.500000
vt 0.375000 0.750000
vt 0.375000 0.500000
vt 0.625000 0.750000
vt 0.375000 1.000000
vt 0.875000 0.500000
vt 0.625000 0.000000
vt 0.375000 0.250000
vt 0.375000 0.000000
vt 0.625000 0.500000
vt 0.375000 0.750000
vt 0.375000 0.500000
vt 0.625000 0.750000
vt 0.375000 1.000000
vt 0.875000 0.500000
vt 0.625000 0.000000
vt 0.375000 0.250000
vt 0.375000 0.000000
vt 0.625000 0.500000
vt 0.375000 0.750000
vt 0.375000 0.500000
vt 0.625000 0.750000
vt 0.375000 1.000000
vt 0.875000 0.500000
vt 0.625000 0.000000
vt 0.375000 0.250000
vt 0.375000 0.000000
vt 0.625000 0.500000
vt 0.375000 0.750000
vt 0.375000 0.500000
vt 0.625000 0.750000
vt 0.375000 1.000000
vt 0.875000 0.500000
vt 0.625000 0.000000
vt 0.375000 0.250000
vt 0.375000 0.000000
vt 0.625000 0.500000
vt 0.375000 0.750000
vt 0.375000 0.500000
vt 0.625000 0.750000
vt 0.375000 1.000000
vt 0.875000 0.500000
vt 0.625000 0.000000
vt 0.375000 0.250000
vt 0.375000 0.000000
vt 0.625000 0.500000
vt 0.375000 0.750000
vt 0.375000 0.500000
vt 0.625000 0.750000
vt 0.375000 1.000000
vt 0.875000 0.500000
vt 0.625000 0.000000
vt 0.375000 0.250000
vt 0.375000 0.000000
vt 0.625000 0.500000
vt 0.375000 0.750000
vt 0.375000 0.500000
vt 0.625000 0.750000
vt 0.375000 1.000000
vt 0.875000 0.500000
vt 0.625000 0.000000
vt 0.375000 0.250000
vt 0.375000 0.000000
vt 0.625000 0.500000
vt 0.375000 0.750000
vt 0.375000 0.500000
vt 0.625000 0.750000
vt 0.375000 1.000000
vt 0.875000 0.500000
vt 0.625000 0.000000
vt 0.375000 0.250000
vt 0.375000 0.000000
vt 0.625000 0.500000
vt 0.375000 0.750000
vt 0.375000 0.500000
vt 0.625000 0.750000
vt 0.375000 1.000000
vt 0.875000 0.500000
vt 0.625000 0.250000
vt 0.625000 1.000000
vt 0.875000 0.750000
vt 0.625000 0.250000
vt 0.625000 1.000000
vt 0.875000 0.750000
vt 0.625000 0.250000
vt 0.625000 1.000000
vt 0.875000 0.750000
vt 0.625000 0.250000
vt 0.625000 1.000000
vt 0.875000 0.750000
vt 0.625000 0.250000
vt 0.625000 1.000000
vt 0.875000 0.750000
vt 0.625000 0.250000
vt 0.625000 1.000000
vt 0.875000 0.750000
vt 0.625000 0.250000
vt 0.625000 1.000000
vt 0.875000 0.750000
vt 0.625000 0.250000
vt 0.625000 1.000000
vt 0.875000 0.750000
vt 0.625000 0.250000
vt 0.625000 1.000000
vt 0.875000 0.750000
vt 0.625000 0.250000
vt 0.625000 1.000000
vt 0.875000 0.750000
vt 0.625000 0.250000
vt 0.625000 1.000000
vt 0.875000 0.750000
vt 0.625000 0.250000
vt 0.625000 1.000000
vt 0.875000 0.750000
vt 0.625000 0.250000
vt 0.625000 1.000000
vt 0.875000 0.750000
vt 0.625000 0.250000
vt 0.625000 1.000000
vt 0.875000 0.750000
vt 0.625000 0.250000
vt 0.625000 1.000000
vt 0.875000 0.750000
vt 0.625000 0.250000
vt 0.625000 1.000000
vt 0.875000 0.750000
vn -1.0000 0.0000 0.0000
vn 1.0000 0.0000 0.0000
vn 0.0000 0.0000 1.0000
vn 0.0000 1.0000 0.0000
usemtl None
s off
f 18/17/3 19/18/3 17/19/3
f 24/20/4 21/21/4 23/22/4
f 22/23/5 17/24/5 21/21/5
f 20/25/6 22/23/6 24/20/6
f 26/26/3 27/27/3 25/28/3
f 32/29/4 29/30/4 31/31/4
f 30/32/5 25/33/5 29/30/5
f 28/34/6 30/32/6 32/29/6
f 34/35/3 35/36/3 33/37/3
f 40/38/4 37/39/4 39/40/4
f 38/41/5 33/42/5 37/39/5
f 36/43/6 38/41/6 40/38/6
f 42/44/3 43/45/3 41/46/3
f 48/47/4 45/48/4 47/49/4
f 46/50/5 41/51/5 45/48/5
f 44/52/6 46/50/6 48/47/6
f 50/53/3 51/54/3 49/55/3
f 56/56/4 53/57/4 55/58/4
f 54/59/5 49/60/5 53/57/5
f 52/61/6 54/59/6 56/56/6
f 58/62/3 59/63/3 57/64/3
f 64/65/4 61/66/4 63/67/4
f 62/68/5 57/69/5 61/66/5
f 60/70/6 62/68/6 64/65/6
f 66/71/3 67/72/3 65/73/3
f 72/74/4 69/75/4 71/76/4
f 70/77/5 65/78/5 69/75/5
f 68/79/6 70/77/6 72/74/6
f 74/80/3 75/81/3 73/82/3
f 80/83/4 77/84/4 79/85/4
f 78/86/5 73/87/5 77/84/5
f 76/88/6 78/86/6 80/83/6
f 82/89/3 83/90/3 81/91/3
f 88/92/4 85/93/4 87/94/4
f 86/95/5 81/96/5 85/93/5
f 84/97/6 86/95/6 88/92/6
f 90/98/3 91/99/3 89/100/3
f 96/101/4 93/102/4 95/103/4
f 94/104/5 89/105/5 93/102/5
f 92/106/6 94/104/6 96/101/6
f 98/107/3 99/108/3 97/109/3
f 104/110/4 101/111/4 103/112/4
f 102/113/5 97/114/5 101/111/5
f 100/115/6 102/113/6 104/110/6
f 106/116/3 107/117/3 105/118/3
f 112/119/4 109/120/4 111/121/4
f 110/122/5 105/123/5 109/120/5
f 108/124/6 110/122/6 112/119/6
f 114/125/3 115/126/3 113/127/3
f 120/128/4 117/129/4 119/130/4
f 118/131/5 113/132/5 117/129/5
f 116/133/6 118/131/6 120/128/6
f 122/134/3 123/135/3 121/136/3
f 128/137/4 125/138/4 127/139/4
f 126/140/5 121/141/5 125/138/5
f 124/142/6 126/140/6 128/137/6
f 130/143/3 131/144/3 129/145/3
f 136/146/4 133/147/4 135/148/4
f 134/149/5 129/150/5 133/147/5
f 132/151/6 134/149/6 136/146/6
f 138/152/3 139/153/3 137/154/3
f 144/155/4 141/156/4 143/157/4
f 142/158/5 137/159/5 141/156/5
f 140/160/6 142/158/6 144/155/6
f 18/17/3 20/161/3 19/18/3
f 24/20/4 22/23/4 21/21/4
f 22/23/5 18/162/5 17/24/5
f 20/25/6 18/163/6 22/23/6
f 26/26/3 28/164/3 27/27/3
f 32/29/4 30/32/4 29/30/4
f 30/32/5 26/165/5 25/33/5
f 28/34/6 26/166/6 30/32/6
f 34/35/3 36/167/3 35/36/3
f 40/38/4 38/41/4 37/39/4
f 38/41/5 34/168/5 33/42/5
f 36/43/6 34/169/6 38/41/6
f 42/44/3 44/170/3 43/45/3
f 48/47/4 46/50/4 45/48/4
f 46/50/5 42/171/5 41/51/5
f 44/52/6 42/172/6 46/50/6
f 50/53/3 52/173/3 51/54/3
f 56/56/4 54/59/4 53/57/4
f 54/59/5 50/174/5 49/60/5
f 52/61/6 50/175/6 54/59/6
f 58/62/3 60/176/3 59/63/3
f 64/65/4 62/68/4 61/66/4
f 62/68/5 58/177/5 57/69/5
f 60/70/6 58/178/6 62/68/6
f 66/71/3 68/179/3 67/72/3
f 72/74/4 70/77/4 69/75/4
f 70/77/5 66/180/5 65/78/5
f 68/79/6 66/181/6 70/77/6
f 74/80/3 76/182/3 75/81/3
f 80/83/4 78/86/4 77/84/4
f 78/86/5 74/183/5 73/87/5
f 76/88/6 74/184/6 78/86/6
f 82/89/3 84/185/3 83/90/3
f 88/92/4 86/95/4 85/93/4
f 86/95/5 82/186/5 81/96/5
f 84/97/6 82/187/6 86/95/6
f 90/98/3 92/188/3 91/99/3
f 96/101/4 94/104/4 93/102/4
f 94/104/5 90/189/5 89/105/5
f 92/106/6 90/190/6 94/104/6
f 98/107/3 100/191/3 99/108/3
f 104/110/4 102/113/4 101/111/4
f 102/113/5 98/192/5 97/114/5
f 100/115/6 98/193/6 102/113/6
f 106/116/3 108/194/3 107/117/3
f 112/119/4 110/122/4 109/120/4
f 110/122/5 106/195/5 105/123/5
f 108/124/6 106/196/6 110/122/6
f 114/125/3 116/197/3 115/126/3
f 120/128/4 118/131/4 117/129/4
f 118/131/5 114/198/5 113/132/5
f 116/133/6 114/199/6 118/131/6
f 122/134/3 124/200/3 123/135/3
f 128/137/4 126/140/4 125/138/4
f 126/140/5 122/201/5 121/141/5
f 124/142/6 122/202/6 126/140/6
f 130/143/3 132/203/3 131/144/3
f 136/146/4 134/149/4 133/147/4
f 134/149/5 130/204/5 129/150/5
f 132/151/6 130/205/6 134/149/6
f 138/152/3 140/206/3 139/153/3
f 144/155/4 142/158/4 141/156/4
f 142/158/5 138/207/5 137/159/5
f 140/160/6 138/208/6 142/158/6
o Ceiling_Plane.002
v 0.605591 0.000000 128.000000
v 64.605591 0.000000 128.000000
v 64.605591 32.000000 64.000000
v 64.605591 0.000000 64.000000
v 0.605591 32.000000 64.000000
v 0.605591 0.000000 64.000000
v 6.559755 0.000000 128.000000
v 58.651428 0.000000 128.000000
v 58.651428 32.000000 64.000000
v 6.559755 32.000000 64.000000
v 0.605591 36.438782 66.219391
v 0.605591 4.438777 130.219391
v 58.651428 4.438777 130.219391
v 64.605591 4.438777 130.219391
v 6.559755 4.438777 130.219391
v 6.559755 36.438782 66.219391
v 64.605591 36.438782 66.219391
v 58.651428 36.438782 66.219391
v 0.605591 32.000000 64.000000
v 64.605591 32.000000 64.000000
v 64.605591 64.000000 0.000000
v 64.605591 32.000000 0.000000
v 0.605591 64.000000 0.000000
v 0.605591 32.000000 0.000000
v 6.559755 32.000000 64.000000
v 58.651428 32.000000 64.000000
v 58.651428 64.000000 0.000000
v 6.559755 64.000000 0.000000
v 0.605591 68.438782 2.219391
v 0.605591 36.438778 66.219391
v 58.651428 36.438778 66.219391
v 64.605591 36.438778 66.219391
v 6.559755 36.438778 66.219391
v 6.559755 68.438782 2.219391
v 64.605591 68.438782 2.219391
v 58.651428 68.438782 2.219391
vt 0.000000 0.000000
vt 2.000000 1.000000
vt 2.000000 0.000000
vt 0.000000 0.000000
vt 0.000000 0.000000
vt 0.000000 0.000000
vt 2.000000 0.000000
vt 2.000000 1.000000
vt 0.000000 0.000000
vt 0.666667 0.000000
vt 0.333333 0.500000
vt 0.333333 0.000000
vt 0.000000 0.000000
vt 0.000000 0.000000
vt 0.000000 0.000000
vt 0.000000 0.000000
vt 0.000000 0.000000
vt 0.000000 0.000000
vt 0.000000 0.000000
vt 0.000000 0.000000
vt 2.000000 1.000000
vt 2.000000 0.000000
vt 0.000000 0.000000
vt 0.000000 0.000000
vt 0.000000 0.000000
vt 2.000000 0.000000
vt 2.000000 1.000000
vt 0.000000 0.000000
vt 0.666667 0.000000
vt 0.333333 0.500000
vt 0.333333 0.000000
vt 0.000000 0.000000
vt 0.000000 0.000000
vt 0.000000 0.000000
vt 0.000000 0.000000
vt 0.000000 0.000000
vt 0.000000 0.000000
vt 0.000000 0.000000
vt 0.000000 0.000000
vt 0.666667 0.500000
vt 0.000000 0.000000
vt 0.000000 0.000000
vt 0.000000 0.000000
vt 0.000000 0.000000
vt 0.666667 0.500000
vt 0.000000 0.000000
vt 0.000000 0.000000
vt 0.000000 0.000000
vt 1.000000 0.500000
vt 1.000000 0.000000
vt 1.000000 0.000000
vt 0.666667 0.500000
vt 0.666667 0.000000
vt 0.333333 0.000000
vt 0.000000 0.500000
vt 0.000000 0.500000
vt 1.000000 0.500000
vt 1.000000 0.000000
vt 1.000000 0.000000
vt 0.666667 0.500000
vt 0.666667 0.000000
vt 0.333333 0.000000
vt 0.000000 0.500000
vt 0.000000 0.500000
vt 1.000000 0.500000
vt 0.333333 0.500000
vt 1.000000 0.500000
vt 0.333333 0.500000
vn -1.0000 0.0000 0.0000
vn 0.0000 0.4472 -0.8944
vn 1.0000 0.0000 0.0000
vn 0.0000 0.8944 0.4472
vn 0.0000 -0.4472 0.8944
usemtl Brick_Wall
s off
f 145/209/7 149/210/7 150/211/7
f 153/212/8 161/213/8 147/214/8
f 148/215/9 147/216/9 146/217/9
f 152/218/10 154/219/10 151/220/10
f 149/221/8 160/222/8 154/223/8
f 151/224/11 156/225/11 145/209/11
f 146/217/11 157/226/11 152/227/11
f 163/228/7 167/229/7 168/230/7
f 171/231/8 179/232/8 165/233/8
f 166/234/9 165/235/9 164/236/9
f 170/237/10 172/238/10 169/239/10
f 167/240/8 178/241/8 172/242/8
f 169/243/11 174/244/11 163/228/11
f 164/236/11 175/245/11 170/246/11
f 153/212/8 162/247/8 161/213/8
f 152/218/10 153/248/10 154/219/10
f 149/221/8 155/249/8 160/222/8
f 151/224/11 159/250/11 156/225/11
f 146/217/11 158/251/11 157/226/11
f 171/231/8 180/252/8 179/232/8
f 170/237/10 171/253/10 172/238/10
f 167/240/8 173/254/8 178/241/8
f 169/243/11 177/255/11 174/244/11
f 164/236/11 176/256/11 175/245/11
usemtl BorderStone
f 147/257/9 158/258/9 146/259/9
f 158/258/10 162/260/10 157/261/10
f 159/262/10 155/263/10 156/225/10
f 153/248/7 157/261/7 162/260/7
f 149/264/7 156/225/7 155/263/7
f 154/219/9 159/262/9 151/220/9
f 165/265/9 176/266/9 164/267/9
f 176/266/10 180/268/10 175/269/10
f 177/270/10 173/271/10 174/244/10
f 170/237/7 180/268/7 171/253/7
f 163/228/7 173/271/7 167/272/7
f 172/238/9 177/270/9 169/239/9
f 147/257/9 161/273/9 158/258/9
f 158/258/10 161/273/10 162/260/10
f 159/262/10 160/274/10 155/263/10
f 153/248/7 152/218/7 157/261/7
f 149/264/7 145/209/7 156/225/7
f 154/219/9 160/274/9 159/262/9
f 165/265/9 179/275/9 176/266/9
f 176/266/10 179/275/10 180/268/10
f 177/270/10 178/276/10 173/271/10
f 170/237/7 175/269/7 180/268/7
f 163/228/7 174/244/7 173/271/7
f 172/238/9 178/276/9 177/270/9
