# Blender v2.90.1 OBJ File: 'scenery.blend'
# www.blender.org
mtllib tunnel_hori_32x64.mtl
o Door.Arch.016_TunnelPiece.001
v 32.000000 57.413803 32.605606
v 32.000000 56.466141 39.408928
v 32.000000 53.687737 45.748619
v 32.000000 49.267921 51.192635
v 32.000000 43.507919 55.369972
v 32.000004 36.800247 57.995956
v 32.000004 29.602032 58.891632
v 32.000000 29.602015 6.319578
v 32.000000 36.800232 7.215248
v 31.999998 43.507904 9.841228
v 32.000000 49.267914 14.018564
v 32.000000 53.687729 19.462576
v 32.000000 56.466133 25.802261
v 32.000004 0.000003 58.891632
v 32.000000 -0.000013 6.319578
v 32.000000 54.213806 32.605606
v 32.000000 53.387047 38.537807
v 32.000000 50.955521 44.082943
v 32.000000 47.067657 48.869125
v 32.000000 41.972908 52.562271
v 32.000004 36.013306 54.894299
v 32.000004 29.404175 55.697784
v 32.000000 29.404158 9.513426
v 32.000000 36.013298 10.316906
v 31.999998 41.972893 12.648932
v 32.000000 47.067650 16.342073
v 32.000000 50.955513 21.128252
v 32.000000 53.387039 26.673382
v 32.000004 0.000003 55.691628
v 32.000000 -0.000013 9.519579
v -0.000002 57.413803 32.605606
v -0.000002 56.466133 25.802265
v -0.000002 56.466141 39.408932
v -0.000004 53.687721 19.462578
v 0.000000 53.687737 45.748619
v -0.000002 54.213799 32.605606
v -0.000002 53.387039 26.673386
v -0.000002 53.387047 38.537811
v -0.000002 50.955521 44.082943
v -0.000002 50.955513 21.128254
v -0.000004 49.267914 14.018568
v -0.000004 47.067650 16.342077
v -0.000004 43.507904 9.841232
v -0.000004 41.972893 12.648935
v 0.000000 36.013290 10.316910
v 0.000000 36.800232 7.215252
v 0.000000 29.404156 9.513430
v 0.000000 29.602013 6.319582
v 0.000004 49.267921 51.192635
v 0.000004 47.067657 48.869125
v 0.000004 43.507919 55.369976
v 0.000004 0.000003 58.891632
v 0.000004 36.800240 57.995960
v 0.000004 29.602028 58.891632
v 0.000004 0.000003 55.691635
v 0.000004 36.013306 54.894302
v 0.000004 41.972908 52.562271
v 0.000004 29.404173 55.697784
v 0.000000 -0.000013 6.319582
v 0.000000 -0.000013 9.519583
vt 0.000000 1.966988
vt 0.000000 1.859728
vt 0.000000 1.888528
vt 0.000000 0.000001
vt 0.000000 1.031182
vt 0.000000 1.024290
vt 0.000000 1.281930
vt 0.000000 1.254518
vt 0.000000 1.515591
vt 0.000000 1.462119
vt 0.000000 1.716240
vt 0.000000 1.639594
vt 0.000000 1.870203
vt 0.000000 1.775027
vt 0.000000 1.966988
vt 0.000000 1.859728
vt 0.000000 2.000000
vt 0.000000 1.870203
vt 0.000000 1.716239
vt 0.000000 1.775027
vt 0.000000 1.639593
vt 0.000000 1.515590
vt 0.000000 1.281930
vt 0.000000 1.462119
vt 0.000000 1.031181
vt 0.000000 1.254517
vt 0.000000 0.000000
vt 0.000000 1.024289
vt 0.000000 0.000000
vt 0.000000 0.000001
vt 1.000000 1.966988
vt 1.000000 2.000000
vt 1.000000 1.870203
vt 1.000000 1.716240
vt 1.000000 1.515591
vt 1.000000 1.281931
vt 1.000000 1.031182
vt 1.000000 1.281930
vt 1.000000 1.031181
vt 1.000000 1.515590
vt 1.000000 1.716239
vt 1.000000 1.870203
vt 1.000000 1.966988
vt 1.000000 0.000001
vt 0.003287 0.840474
vt 0.999907 0.999908
vt 0.003287 0.999908
vt 0.003287 0.679302
vt 0.999908 0.840474
vt 0.999907 0.515163
vt 0.999907 0.679302
vt 0.003287 0.347665
vt 0.003287 0.515163
vt 0.999908 0.177315
vt 0.999907 0.347664
vt 0.003287 0.000092
vt 0.003287 0.177314
vt 0.003287 0.822685
vt 0.999892 0.999908
vt 0.003287 0.999908
vt 0.003287 0.652336
vt 0.999892 0.822685
vt 0.003287 0.484837
vt 0.999892 0.652336
vt 0.003287 0.320698
vt 0.999892 0.484837
vt 0.003287 0.159527
vt 0.999892 0.320699
vt 0.003287 0.000093
vt 0.999892 0.159527
vt 1.000000 0.000001
vt 1.000000 1.024290
vt 1.000000 1.024289
vt 1.000000 0.000000
vt 0.999908 0.000092
vt 0.999892 0.000092
vt 1.000000 0.000000
vn -1.0000 0.0000 0.0000
vn 0.0000 1.0000 -0.0000
vn 0.0000 0.9622 0.2722
vn 0.0000 0.8538 0.5205
vn 0.0000 0.6876 0.7261
vn 0.0000 0.4797 0.8774
vn 0.0000 0.2459 0.9693
vn -0.0000 0.0619 0.9981
vn -0.0000 0.0619 -0.9981
vn -0.0000 0.2459 -0.9693
vn -0.0000 0.4797 -0.8774
vn -0.0000 0.6876 -0.7261
vn -0.0000 0.8538 -0.5205
vn -0.0000 0.9622 -0.2722
vn 0.0000 0.0000 1.0000
vn 0.0000 -0.9622 -0.2724
vn 0.0000 -1.0000 0.0000
vn -0.0000 -0.8537 -0.5207
vn 0.0000 -0.6874 -0.7263
vn 0.0000 -0.4795 -0.8775
vn 0.0000 -0.2445 -0.9697
vn 0.0000 -0.0603 -0.9982
vn 0.0000 -0.2445 0.9697
vn 0.0000 -0.0603 0.9982
vn 0.0000 -0.4795 0.8775
vn 0.0000 -0.6874 0.7263
vn 0.0000 -0.8537 0.5207
vn 0.0000 -0.9622 0.2724
vn -0.0000 0.0002 -1.0000
vn 0.0000 0.0002 1.0000
vn -0.0000 0.0000 -1.0000
usemtl Brick_Wall
s off
f 32/1/1 37/2/1 36/3/1
f 52/4/1 54/5/1 58/6/1
f 54/5/1 53/7/1 56/8/1
f 58/6/1 54/5/1 56/8/1
f 53/7/1 51/9/1 57/10/1
f 51/9/1 49/11/1 50/12/1
f 57/10/1 51/9/1 50/12/1
f 49/11/1 35/13/1 39/14/1
f 35/13/1 33/15/1 38/16/1
f 49/11/1 39/14/1 50/12/1
f 33/15/1 31/17/1 36/3/1
f 31/17/1 32/1/1 36/3/1
f 33/15/1 36/3/1 38/16/1
f 32/1/1 34/18/1 37/2/1
f 34/18/1 41/19/1 40/20/1
f 40/20/1 41/19/1 42/21/1
f 41/19/1 43/22/1 42/21/1
f 43/22/1 46/23/1 44/24/1
f 46/23/1 48/25/1 45/26/1
f 48/25/1 59/27/1 47/28/1
f 59/27/1 60/29/1 47/28/1
f 48/25/1 47/28/1 45/26/1
f 55/30/1 52/4/1 58/6/1
f 46/23/1 45/26/1 44/24/1
f 57/10/1 56/8/1 53/7/1
f 43/22/1 44/24/1 42/21/1
f 34/18/1 40/20/1 37/2/1
f 39/14/1 35/13/1 38/16/1
s 1
f 31/17/2 2/31/3 1/32/2
f 2/31/3 35/13/4 3/33/4
f 3/33/4 49/11/5 4/34/5
f 49/11/5 5/35/6 4/34/5
f 51/9/6 6/36/7 5/35/6
f 53/7/7 7/37/8 6/36/7
f 48/25/9 9/38/10 8/39/9
f 46/23/10 10/40/11 9/38/10
f 10/40/11 41/19/12 11/41/12
f 41/19/12 12/42/13 11/41/12
f 12/42/13 32/1/14 13/43/14
f 32/1/14 1/32/2 13/43/14
f 54/5/8 14/44/15 7/37/8
f 17/45/16 36/46/17 16/47/17
f 18/48/18 38/49/16 17/45/16
f 18/48/18 50/50/19 39/51/18
f 20/52/20 50/50/19 19/53/19
f 20/52/20 56/54/21 57/55/20
f 22/56/22 56/54/21 21/57/21
f 24/58/23 47/59/24 23/60/24
f 25/61/25 45/62/23 24/58/23
f 26/63/26 44/64/25 25/61/25
f 27/65/27 42/66/26 26/63/26
f 28/67/28 40/68/27 27/65/27
f 16/69/17 37/70/28 28/67/28
f 29/71/29 58/6/22 22/72/22
f 60/29/30 23/73/24 47/28/24
f 48/25/9 15/74/31 59/27/31
f 31/17/2 33/15/3 2/31/3
f 2/31/3 33/15/3 35/13/4
f 3/33/4 35/13/4 49/11/5
f 49/11/5 51/9/6 5/35/6
f 51/9/6 53/7/7 6/36/7
f 53/7/7 54/5/8 7/37/8
f 48/25/9 46/23/10 9/38/10
f 46/23/10 43/22/11 10/40/11
f 10/40/11 43/22/11 41/19/12
f 41/19/12 34/18/13 12/42/13
f 12/42/13 34/18/13 32/1/14
f 32/1/14 31/17/2 1/32/2
f 54/5/8 52/4/15 14/44/15
f 17/45/16 38/49/16 36/46/17
f 18/48/18 39/51/18 38/49/16
f 18/48/18 19/53/19 50/50/19
f 20/52/20 57/55/20 50/50/19
f 20/52/20 21/57/21 56/54/21
f 22/56/22 58/75/22 56/54/21
f 24/58/23 45/62/23 47/59/24
f 25/61/25 44/64/25 45/62/23
f 26/63/26 42/66/26 44/64/25
f 27/65/27 40/68/27 42/66/26
f 28/67/28 37/70/28 40/68/27
f 16/69/17 36/76/17 37/70/28
f 29/71/29 55/30/29 58/6/22
f 60/29/30 30/77/30 23/73/24
f 48/25/9 8/39/9 15/74/31
